<svg xmlns="http://www.w3.org/2000/svg" width="3000" height="3000" id="team-of-developers-launching-website"><path fill="#FFF" d="M0 0h3000v3000H0z"></path><path fill="#F2889E" d="M1568.38 622.564h-38.22a2.086 2.086 0 0 1-2.085-2.085v-14.053a64.055 64.055 0 0 1-7.379-3.063l-9.941 9.941a2.086 2.086 0 0 1-2.949 0l-27.03-27.03a2.085 2.085 0 0 1 0-2.95l9.942-9.933a64.535 64.535 0 0 1-3.064-7.387H1473.6a2.086 2.086 0 0 1-2.085-2.085V525.7c0-1.151.934-2.085 2.085-2.085h14.054a65.384 65.384 0 0 1 3.057-7.385l-9.935-9.936a2.085 2.085 0 0 1 0-2.948l27.03-27.03a2.086 2.086 0 0 1 2.948-.001l9.944 9.935a64.895 64.895 0 0 1 7.377-3.056V469.14c0-1.151.934-2.085 2.085-2.085h38.22c1.151 0 2.085.934 2.085 2.085v14.054a65.412 65.412 0 0 1 7.386 3.057l9.935-9.935c.783-.782 2.166-.782 2.949 0l27.03 27.03a2.086 2.086 0 0 1 0 2.948l-9.935 9.944a64.864 64.864 0 0 1 3.056 7.377h14.054c1.151 0 2.085.934 2.085 2.085v38.22a2.086 2.086 0 0 1-2.085 2.085h-14.054a64.864 64.864 0 0 1-3.056 7.377l9.935 9.944a2.086 2.086 0 0 1 0 2.948l-27.03 27.03a2.085 2.085 0 0 1-2.95 0l-9.936-9.944a65.32 65.32 0 0 1-7.385 3.066v14.054a2.083 2.083 0 0 1-2.084 2.084zm-36.135-4.169h34.05V604.92c0-.908.588-1.712 1.454-1.987a61.115 61.115 0 0 0 9.553-3.964 2.087 2.087 0 0 1 2.433.378l9.526 9.534 24.081-24.082-9.526-9.536a2.083 2.083 0 0 1-.376-2.434 60.635 60.635 0 0 0 3.953-9.541 2.085 2.085 0 0 1 1.987-1.454h13.475v-34.05h-13.475a2.085 2.085 0 0 1-1.987-1.454 60.556 60.556 0 0 0-3.953-9.541 2.083 2.083 0 0 1 .376-2.434l9.526-9.536-24.082-24.082-9.525 9.525a2.084 2.084 0 0 1-2.433.378 61.119 61.119 0 0 0-9.553-3.955 2.085 2.085 0 0 1-1.454-1.987v-13.476h-34.05V484.7c0 .908-.588 1.712-1.453 1.987a60.4 60.4 0 0 0-9.541 3.953 2.088 2.088 0 0 1-2.435-.375l-9.535-9.527-24.083 24.083 9.525 9.526c.643.642.795 1.626.377 2.433a61.068 61.068 0 0 0-3.954 9.553 2.085 2.085 0 0 1-1.987 1.454h-13.476v34.05h13.476c.908 0 1.712.588 1.987 1.454a60.2 60.2 0 0 0 3.962 9.548c.42.808.268 1.794-.376 2.438l-9.534 9.525 24.081 24.081 9.535-9.535a2.086 2.086 0 0 1 2.439-.374 59.69 59.69 0 0 0 9.537 3.96 2.085 2.085 0 0 1 1.453 1.987v13.474z"></path><path fill="#F2889E" d="M1549.27 581.975c-20.493 0-37.165-16.672-37.165-37.165s16.672-37.165 37.165-37.165 37.165 16.672 37.165 37.165-16.672 37.165-37.165 37.165zm0-70.161c-18.193 0-32.995 14.802-32.995 32.995s14.802 32.995 32.995 32.995 32.995-14.802 32.995-32.995-14.802-32.995-32.995-32.995z"></path><path fill="#D0D3D4" d="M1860.26 758.875h-73.22a2.086 2.086 0 0 1-2.085-2.085v-28.293a120.964 120.964 0 0 1-16.424-6.81l-20.007 20.007a2.086 2.086 0 0 1-2.949 0l-51.78-51.77a2.084 2.084 0 0 1 0-2.949l20.008-20.008a122.754 122.754 0 0 1-6.807-16.423h-28.297a2.086 2.086 0 0 1-2.085-2.085V575.23c0-1.151.934-2.085 2.085-2.085h28.295a121.692 121.692 0 0 1 6.809-16.423l-20.008-20.008a2.084 2.084 0 0 1 0-2.949l51.78-51.771a2.087 2.087 0 0 1 2.949 0l20.007 20.007a120.937 120.937 0 0 1 16.424-6.809V466.9c0-1.151.934-2.085 2.085-2.085h73.22c1.151 0 2.085.934 2.085 2.085v28.293a121.92 121.92 0 0 1 16.424 6.809l20.007-20.007a2.086 2.086 0 0 1 2.949 0l51.779 51.771a2.084 2.084 0 0 1 0 2.949l-20.017 20.017a121.487 121.487 0 0 1 6.809 16.415h28.294c1.151 0 2.085.934 2.085 2.085v73.229a2.086 2.086 0 0 1-2.085 2.085h-28.294a121.782 121.782 0 0 1-6.81 16.423l20.017 20.007c.392.391.611.921.611 1.475 0 .553-.22 1.083-.61 1.475l-51.779 51.77a2.087 2.087 0 0 1-2.949 0l-20.007-20.007a121.817 121.817 0 0 1-16.424 6.81v28.293a2.085 2.085 0 0 1-2.085 2.083zm-71.135-4.17h69.05V726.98c0-.909.589-1.713 1.455-1.987a117.5 117.5 0 0 0 18.579-7.704 2.088 2.088 0 0 1 2.436.376l19.605 19.605 48.83-48.821-19.614-19.605a2.085 2.085 0 0 1-.377-2.436 117.369 117.369 0 0 0 7.703-18.579 2.084 2.084 0 0 1 1.987-1.455h27.726v-69.06h-27.726a2.084 2.084 0 0 1-1.987-1.455 116.877 116.877 0 0 0-7.702-18.568 2.084 2.084 0 0 1 .375-2.436l19.615-19.616-48.83-48.822-19.605 19.605a2.086 2.086 0 0 1-2.436.376 117.557 117.557 0 0 0-18.579-7.703 2.085 2.085 0 0 1-1.455-1.987v-27.725h-69.05v27.725c0 .909-.589 1.713-1.456 1.988a116.848 116.848 0 0 0-18.577 7.702 2.084 2.084 0 0 1-2.437-.376l-19.605-19.606-48.831 48.822 19.605 19.606c.643.643.795 1.628.376 2.435a117.56 117.56 0 0 0-7.703 18.58 2.084 2.084 0 0 1-1.987 1.455h-27.726v69.06h27.726c.908 0 1.711.587 1.986 1.452a118.628 118.628 0 0 0 7.704 18.583 2.085 2.085 0 0 1-.376 2.435l-19.605 19.606 48.831 48.821 19.605-19.606a2.083 2.083 0 0 1 2.437-.375 116.83 116.83 0 0 0 18.577 7.703 2.085 2.085 0 0 1 1.456 1.988v27.724z"></path><path fill="#D0D3D4" d="M1823.65 681.125c-38.204 0-69.285-31.081-69.285-69.285 0-38.198 31.081-69.274 69.285-69.274 38.198 0 69.274 31.076 69.274 69.274.001 38.204-31.075 69.285-69.274 69.285zm0-134.39c-35.904 0-65.115 29.206-65.115 65.104 0 35.905 29.211 65.115 65.115 65.115 35.898 0 65.104-29.21 65.104-65.115.001-35.898-29.205-65.104-65.104-65.104z"></path><path fill="#7DA3FB" d="M887.34 691.93h1246.12v93.89H887.34z"></path><path fill="#FFF" d="M1906.09 721.96c9.34 0 16.92 7.57 16.92 16.91 0 9.35-7.58 16.92-16.92 16.92s-16.92-7.57-16.92-16.92c0-9.34 7.58-16.91 16.92-16.91zM1969.439 721.96c9.34 0 16.92 7.57 16.92 16.91 0 9.35-7.579 16.92-16.92 16.92-9.34 0-16.92-7.57-16.92-16.92.001-9.34 7.581-16.91 16.92-16.91zM2032.79 721.96c9.34 0 16.92 7.57 16.92 16.91 0 9.35-7.58 16.92-16.92 16.92s-16.92-7.57-16.92-16.92c0-9.34 7.579-16.91 16.92-16.91z"></path><path fill="#E1ECF2" d="M887.34 805.021h1246.12v900.449H887.34z"></path><path fill="#7DA3FB" d="M2084.2 1707.555H887.34a2.086 2.086 0 0 1 0-4.17H2084.2a2.086 2.086 0 0 1 0 4.17zM2133.46 1679.355H961.84a2.086 2.086 0 0 1 0-4.17h1171.62a2.086 2.086 0 0 1 0 4.17z"></path><path fill="#E1ECF2" d="M1657 951.28h279.061v279.06H1657z"></path><path fill="#FFF" d="M1936.061 1232.425H1657a2.086 2.086 0 0 1-2.085-2.085V951.28c0-1.151.934-2.085 2.085-2.085h279.061c1.151 0 2.085.934 2.085 2.085v279.06a2.086 2.086 0 0 1-2.085 2.085zm-276.976-4.17h274.891v-274.89h-274.891v274.89z"></path><path fill="#7DA3FB" d="M1923.1 1107.51v109.87h-253.14v-84.859c23.53-33.49 54.83-72.58 72.78-72.58 31.4 0 62.31 81.26 93.71 81.26 31.399 0 33.979-58.33 60.319-58.33 9.481-.001 17.831 10.81 26.331 24.639z"></path><path fill="#D0D3D4" d="M1833.41 994.479c18.51 0 33.51 15 33.51 33.511 0 18.5-15 33.51-33.51 33.51s-33.51-15.01-33.51-33.51c0-18.511 15-33.511 33.51-33.511z"></path><path fill="#E1ECF2" d="M1535.54 859.45h279.06v279.06h-279.06z"></path><path fill="#FFF" d="M1814.6 1140.595h-279.06a2.086 2.086 0 0 1-2.085-2.085V859.45c0-1.151.934-2.085 2.085-2.085h279.06c1.151 0 2.085.934 2.085 2.085v279.06a2.086 2.086 0 0 1-2.085 2.085zm-276.975-4.17h274.89v-274.89h-274.89v274.89z"></path><path fill="#647EDD" d="M1801.641 1015.68v109.87H1548.5v-84.859c23.53-33.49 54.83-72.58 72.78-72.58 31.409 0 62.31 81.26 93.72 81.26 31.4 0 33.98-58.33 60.311-58.33 9.489-.001 17.839 10.809 26.33 24.639z"></path><path fill="#FFAF18" d="M1711.95 902.65c18.51 0 33.51 15 33.51 33.51 0 18.5-15 33.51-33.51 33.51-18.5 0-33.511-15.01-33.511-33.51 0-18.51 15.011-33.51 33.511-33.51z"></path><path fill="#FFF" d="M1535.54 1315.08h422.49v21.34h-422.49zM1535.54 1366.29h422.49v21.34h-422.49zM1535.54 1417.5h422.49v21.34h-422.49zM1535.54 1468.71h422.49v21.34h-422.49zM1535.54 1519.92h167.98v21.34h-167.98z"></path><path fill="#7DA3FB" d="M1445.74 1436.26c-43.61 0-45.12 90.38-94.75 90.38s-68.431-49.04-108.28-49.04c-39.86 0-46.62 77.761-94.75 77.761s-51.13-44.131-103.771-44.131c-52.64 0-94 62.351-94 62.351h495.551V1436.26z"></path><path fill="#D0D3D4" d="M894.12 650.56c-20.62-1.609-39.16-10.64-52.95-24.43-13.78-13.78-22.82-32.32-24.43-52.95h32.43c1.49 11.71 6.88 22.2 14.811 30.141 7.939 7.939 18.43 13.319 30.14 14.819v32.42z"></path><path fill="#FFAF18" d="M900.77 482.24c23.28 0 44.351 9.43 59.61 24.689 15.25 15.25 24.69 36.33 24.69 59.601 0 23.27-9.44 44.35-24.69 59.6-13.79 13.79-32.33 22.82-52.95 24.43v-32.42c11.71-1.5 22.2-6.88 30.141-14.819 9.41-9.41 15.229-22.42 15.229-36.79s-5.819-27.38-15.229-36.79c-9.42-9.41-22.431-15.24-36.801-15.24-14.359 0-27.369 5.83-36.789 15.24-7.931 7.93-13.32 18.43-14.811 30.13h-32.43c1.609-20.62 10.65-39.16 24.43-52.94 15.26-15.261 36.33-24.691 59.6-24.691z"></path><path fill="#353640" d="M849.17 561.955h-32.43a2.086 2.086 0 0 1 0-4.17h32.43a2.086 2.086 0 0 1 0 4.17z"></path><path fill="#949899" d="M760.18 666.42c2.94 13.37-.74 27.84-11.06 38.16-16.17 16.17-42.54 16.03-58.89-.32-16.351-16.35-16.49-42.71-.311-58.89 10.32-10.311 24.78-13.99 38.15-11.061l-7.03 7.03-9.271 9.271 3.4 12.659 3.391 12.66 12.659 3.4 12.66 3.39 9.271-9.27 7.031-7.029z"></path><path fill="#949899" d="m697.7 674.04 22.75 22.76L543.01 897c-11.74 13.25-33 12.521-45.52 0-12.51-12.521-13.24-33.771 0-45.51L697.7 674.04z"></path><path fill="#353640" d="M510.1 884.39c5.351 5.36 14.03 5.36 19.381 0 5.35-5.35 5.35-14.02 0-19.369-5.351-5.351-14.03-5.351-19.381 0-5.35 5.349-5.35 14.019 0 19.369z"></path><path fill="#FFF" d="M519.79 890.495a15.676 15.676 0 0 1-11.166-4.632c-2.98-2.98-4.622-6.943-4.622-11.158s1.642-8.178 4.623-11.159c2.981-2.982 6.946-4.624 11.165-4.624s8.183 1.642 11.165 4.624c2.981 2.981 4.623 6.944 4.623 11.159s-1.642 8.178-4.623 11.159a15.67 15.67 0 0 1-11.165 4.631zm0-27.402a11.543 11.543 0 0 0-8.216 3.402c-2.193 2.194-3.401 5.109-3.401 8.21s1.208 6.017 3.401 8.21c2.195 2.199 5.113 3.409 8.216 3.409s6.021-1.21 8.215-3.408c2.195-2.195 3.403-5.11 3.403-8.211s-1.208-6.017-3.401-8.21a11.545 11.545 0 0 0-8.217-3.402z"></path><path fill="#2A1D19" d="M543.009 899.085a2.085 2.085 0 0 1-1.56-3.467l162.24-183.05a2.085 2.085 0 0 1 3.121 2.765l-162.24 183.05a2.079 2.079 0 0 1-1.561.702zM718.559 678.015c-.92 0-1.763-.614-2.012-1.545l-6.791-25.319a2.085 2.085 0 0 1 4.028-1.08l6.791 25.319a2.085 2.085 0 0 1-2.016 2.625zM683.322 697.276a2.084 2.084 0 0 1-1.89-1.202l-2.78-5.94a2.084 2.084 0 1 1 3.776-1.768l2.78 5.94a2.084 2.084 0 0 1-1.886 2.97z"></path><path fill="#F2889E" d="M2219.73 602.61h104.73l53.05 53.06v113.74h-157.78z"></path><path fill="#F72E70" d="M2377.51 655.67h-53.05v-53.06z"></path><path fill="#FFF" d="M2271.11 683.54c1.56-.04 2.819-.46 3.8-1.26.98-.801 1.64-1.891 1.96-3.271.32-1.39.5-3.76.521-7.12.01-3.359.06-5.58.149-6.649.19-1.69.521-3.04 1.01-4.07.49-1.021 1.091-1.84 1.82-2.46.72-.61 1.64-1.08 2.771-1.4.76-.199 2-.3 3.729-.3h1.68v4.76h-.93c-2.07 0-3.44.38-4.12 1.13-.67.761-1.01 2.44-1.01 5.051 0 5.27-.12 8.6-.34 9.989-.36 2.15-.99 3.811-1.871 4.98-.879 1.16-2.26 2.2-4.159 3.1 2.239.931 3.85 2.341 4.86 4.24 1 1.89 1.51 5 1.51 9.32 0 3.92.02 6.25.06 6.989.16 1.37.57 2.32 1.22 2.87.66.54 1.931.811 3.841.811h.939v4.76h-1.689c-1.97 0-3.4-.16-4.29-.479-1.28-.471-2.351-1.211-3.19-2.25-.85-1.03-1.399-2.341-1.64-3.931-.26-1.58-.39-4.189-.42-7.81-.02-3.62-.189-6.12-.51-7.5-.32-1.391-.96-2.49-1.93-3.29-.98-.8-2.221-1.23-3.771-1.271v-4.939zm55.02 0v4.939c-1.55.04-2.819.471-3.8 1.271s-1.64 1.9-1.96 3.271c-.32 1.38-.49 3.739-.51 7.1-.011 3.359-.061 5.56-.16 6.64-.18 1.7-.51 3.061-1.01 4.08-.49 1.01-1.101 1.82-1.83 2.44-.72.609-1.65 1.08-2.78 1.399-.77.221-2.01.33-3.76.33h-1.69v-4.76h.94c2.09 0 3.479-.38 4.17-1.13.68-.76 1.02-2.45 1.02-5.07 0-5.029.08-8.21.24-9.56.32-2.22.97-4.01 1.939-5.351.98-1.34 2.351-2.369 4.131-3.119-2.341-1.101-3.99-2.57-4.94-4.381-.96-1.819-1.44-4.899-1.44-9.22 0-3.92-.02-6.27-.06-7.03-.14-1.34-.53-2.289-1.19-2.819-.659-.53-1.949-.8-3.869-.8h-.94v-4.761h1.69c1.97 0 3.409.16 4.289.48a6.959 6.959 0 0 1 3.2 2.24c.841 1.04 1.39 2.359 1.64 3.949.25 1.58.391 4.19.41 7.82.021 3.62.19 6.12.51 7.49.32 1.38.98 2.47 1.961 3.28.979.802 2.249 1.232 3.799 1.272z"></path><path fill="#2A1D19" d="M2254 771.495h-34.27a2.086 2.086 0 0 1-2.085-2.085V710.9a2.086 2.086 0 0 1 4.17 0v56.425H2254a2.086 2.086 0 0 1 0 4.17zM2377.51 657.755h-53.05a2.086 2.086 0 0 1 0-4.17h53.05a2.086 2.086 0 0 1 0 4.17z"></path><path fill="#7DA3FB" d="M1784.98 1805.58h257.89v175.27h-257.89z"></path><path fill="#FFF" d="M1793.66 1890.935a2.086 2.086 0 0 1-2.085-2.085v-74.51c0-1.151.934-2.085 2.085-2.085h210.779a2.086 2.086 0 0 1 0 4.17h-208.694v72.425a2.085 2.085 0 0 1-2.085 2.085z"></path><path fill="#353640" d="M2035.52 1974.705h-29.729a2.086 2.086 0 0 1 0-4.17h27.645v-39.025a2.086 2.086 0 0 1 4.17 0v41.11a2.088 2.088 0 0 1-2.086 2.085z"></path><path fill="#FFF" d="m1884.7 1885.729-24.681 9.041 24.681 8.97v9.27l-35.28-13.42v-9.64l35.28-13.41v9.189zm36.67-27.429h10.31l-24.47 69.83h-10.3l24.46-69.83zm57.05 31.65v9.64l-35.279 13.42v-9.27l24.68-8.97-24.68-9.041v-9.189l35.279 13.41z"></path><path fill="#949899" d="M1333.36 1623.68h370.079v251.52H1333.36z"></path><path fill="#FFF" d="M1540.51 1839.075h-44.23a2.086 2.086 0 0 1-2.085-2.085v-16.492a75.093 75.093 0 0 1-8.929-3.706l-11.662 11.662a2.085 2.085 0 0 1-2.948 0l-31.28-31.27a2.089 2.089 0 0 1 0-2.95l11.671-11.662a74.77 74.77 0 0 1-3.707-8.938h-16.491a2.086 2.086 0 0 1-2.085-2.085v-44.229c0-1.151.934-2.085 2.085-2.085h16.492a75.851 75.851 0 0 1 3.698-8.928l-11.664-11.663a2.089 2.089 0 0 1 0-2.95l31.28-31.28a2.089 2.089 0 0 1 2.949.001l11.662 11.671a74.85 74.85 0 0 1 8.928-3.705v-16.492c0-1.151.934-2.085 2.085-2.085h44.23c1.151 0 2.085.934 2.085 2.085v16.491a74.268 74.268 0 0 1 8.929 3.707l11.672-11.673a2.085 2.085 0 0 1 2.95.001l31.27 31.28a2.086 2.086 0 0 1 0 2.948l-11.664 11.663a75.745 75.745 0 0 1 3.697 8.928h16.503c1.151 0 2.085.934 2.085 2.085v44.229a2.086 2.086 0 0 1-2.085 2.085h-16.502a74.842 74.842 0 0 1-3.697 8.928l11.663 11.674a2.086 2.086 0 0 1 0 2.948l-31.27 31.27a2.085 2.085 0 0 1-2.948 0l-11.672-11.662a74.53 74.53 0 0 1-8.93 3.707v16.491a2.085 2.085 0 0 1-2.085 2.086zm-42.146-4.17h40.061v-15.915c0-.908.588-1.712 1.454-1.987a70.319 70.319 0 0 0 11.09-4.604 2.086 2.086 0 0 1 2.435.376l11.266 11.256 28.322-28.322-11.256-11.266a2.085 2.085 0 0 1-.377-2.433 70.63 70.63 0 0 0 4.594-11.092 2.084 2.084 0 0 1 1.987-1.454h15.926v-40.06h-15.926a2.085 2.085 0 0 1-1.987-1.453 71.46 71.46 0 0 0-4.595-11.096 2.086 2.086 0 0 1 .378-2.432l11.256-11.255-28.321-28.331-11.266 11.266a2.086 2.086 0 0 1-2.436.376 70.16 70.16 0 0 0-11.09-4.604 2.084 2.084 0 0 1-1.454-1.987v-15.915h-40.061v15.915c0 .908-.587 1.712-1.453 1.987a70.573 70.573 0 0 0-11.092 4.604 2.084 2.084 0 0 1-2.436-.377l-11.255-11.265-28.331 28.331 11.256 11.255c.642.642.795 1.625.378 2.432a71.345 71.345 0 0 0-4.596 11.096 2.085 2.085 0 0 1-1.987 1.453h-15.915v40.06h15.915c.909 0 1.712.588 1.987 1.454a70.214 70.214 0 0 0 4.603 11.1 2.086 2.086 0 0 1-.376 2.436l-11.264 11.256 28.33 28.321 11.256-11.256a2.083 2.083 0 0 1 2.435-.376 70.654 70.654 0 0 0 11.092 4.604 2.083 2.083 0 0 1 1.452 1.986v15.916z"></path><path fill="#FFF" d="M1518.4 1792.115c-23.531 0-42.675-19.144-42.675-42.675s19.144-42.676 42.675-42.676c23.525 0 42.665 19.145 42.665 42.676s-19.139 42.675-42.665 42.675zm0-81.18c-21.231 0-38.505 17.273-38.505 38.506 0 21.231 17.273 38.505 38.505 38.505 21.227 0 38.495-17.273 38.495-38.505.001-21.233-17.268-38.506-38.495-38.506zM1345.811 1745.255a2.086 2.086 0 0 1-2.085-2.085v-106.92c0-1.151.934-2.085 2.085-2.085H1648.3a2.086 2.086 0 0 1 0 4.17h-300.404v104.835a2.086 2.086 0 0 1-2.085 2.085z"></path><path fill="#353640" d="M1692.891 1865.475h-42.65a2.086 2.086 0 0 1 0-4.17h40.565v-56.915a2.086 2.086 0 0 1 4.17 0v59a2.086 2.086 0 0 1-2.085 2.085z"></path><path fill="#FFAF18" d="M2318.48 842.21h-370.57c-10.2 0-18.53 8.34-18.53 18.53v45.17c0 10.189 8.33 18.53 18.53 18.53h299.06l56.011 53.39-11.61-53.39h27.11c10.199 0 18.529-8.341 18.529-18.53v-45.17c0-10.19-8.33-18.53-18.53-18.53z"></path><path fill="#FFF" d="M2300.82 874.405h-335.25a2.086 2.086 0 0 1 0-4.17h335.25a2.086 2.086 0 0 1 0 4.17zM2300.82 895.255h-232.48a2.086 2.086 0 0 1 0-4.17h232.48a2.086 2.086 0 0 1 0 4.17z"></path><path fill="#2A1D19" d="M2238.58 936.655h-285.46a2.086 2.086 0 0 1 0-4.17h285.46a2.086 2.086 0 0 1 0 4.17z"></path><path fill="#F2889E" d="M808.52 922.01h176.26c8.84 0 16.08 7.23 16.08 16.08v39.2c0 8.84-7.24 16.08-16.08 16.08H870.59l-48.609 46.34 10.08-46.34H808.52c-8.84 0-16.079-7.24-16.079-16.08v-39.2c-.001-8.85 7.239-16.08 16.079-16.08z"></path><path fill="#FFF" d="M968.68 950.225H823.85a2.086 2.086 0 0 1 0-4.17h144.83a2.086 2.086 0 0 1 0 4.17zM924.28 968.314H823.85a2.086 2.086 0 0 1 0-4.17h100.43a2.086 2.086 0 0 1 0 4.17z"></path><path fill="#2A1D19" d="M962.189 1004.245H877.87a2.086 2.086 0 0 1 0-4.17h84.319a2.086 2.086 0 0 1 0 4.17z"></path><path fill="#FFAF18" d="M1122.59 1159.17s-71.689 44.811-80.65 101.94h-54.89s-12.319-115.38 128.82-197.15l6.72 95.21zM1302.939 1159.17s71.7 44.811 80.66 101.94h54.891s12.32-115.38-128.82-197.15l-6.731 95.21z"></path><path fill="#647EDD" d="M1085.33 1160.84s-5.1-145.62-16.32-315.89c-11.21-170.271 143.76-266.61 143.76-266.61s154.971 96.34 143.761 266.61c-11.22 170.27-16.32 315.89-16.32 315.89l-71.97 100.271H1157.3l-71.97-100.271z"></path><path fill="#FFAF18" d="M1202.96 1261.11h19.62v-197.15h-19.62z"></path><path fill="#2A1D19" d="M1212.77 1022.005c-38.744 0-73.198-24.614-85.732-61.25a2.084 2.084 0 1 1 3.945-1.349c11.958 34.949 44.826 58.43 81.787 58.43a2.086 2.086 0 0 1 0 4.169zm57.971-21.63a2.085 2.085 0 0 1-1.367-3.66 86.383 86.383 0 0 0 29.821-65.305c0-47.649-38.771-86.415-86.426-86.415a2.086 2.086 0 0 1 0-4.17c49.955 0 90.596 40.636 90.596 90.585a90.551 90.551 0 0 1-31.259 68.455c-.395.343-.881.51-1.365.51zm-146.481-66.88a2.086 2.086 0 0 1-2.085-2.085c0-35.41 20.827-67.785 53.06-82.477a2.085 2.085 0 1 1 1.73 3.794c-30.75 14.017-50.62 44.902-50.62 78.683a2.085 2.085 0 0 1-2.085 2.085z"></path><path fill="#FFF" d="M1212.77 856.92c41.141 0 74.49 33.35 74.49 74.49 0 41.14-33.35 74.5-74.49 74.5-41.14 0-74.489-33.36-74.489-74.5-.001-41.14 33.349-74.49 74.489-74.49z"></path><path fill="#2A1D19" d="M1027.392 1263.195a2.086 2.086 0 0 1-2.079-2.272c.057-.632 6.252-63.533 54.709-95.09a2.085 2.085 0 1 1 2.276 3.494c-46.781 30.465-52.776 91.359-52.832 91.97a2.084 2.084 0 0 1-2.074 1.898zM1426.748 1263.195a2.084 2.084 0 0 1-2.079-1.96c-2.866-47.777-23.497-86.222-40.299-110.061-18.252-25.894-36.065-40.646-36.243-40.792a2.085 2.085 0 0 1 2.645-3.224c.181.149 18.355 15.184 36.927 41.502 17.148 24.302 38.204 63.516 41.131 112.325a2.085 2.085 0 0 1-2.082 2.21z"></path><path fill="#FFAF18" d="M1185.76 1267.83s-44.34 9.31-44.34 49.64c0 40.32 71.35 56.94 71.35 101.75 0-44.81 71.351-61.43 71.351-101.75 0-40.33-44.34-49.64-44.34-49.64h-54.021z"></path><path fill="#F72E70" d="M1200.39 1267.83s-20.329 5.8-20.329 30.92 32.709 35.46 32.709 63.37c0-27.91 32.711-38.25 32.711-63.37s-20.33-30.92-20.33-30.92h-24.761z"></path><path fill="#2A1D19" d="M1212.722 1362.325a2.085 2.085 0 0 1-2.075-2.313c.022-.244 1.149-14.345-17.888-31.619a2.084 2.084 0 1 1 2.802-3.088c20.844 18.912 19.306 34.519 19.23 35.174a2.085 2.085 0 0 1-2.069 1.846z"></path><path fill="#FFF" d="M1245.47 1300.025a2.086 2.086 0 0 1-2.085-2.085c0-15.071-9.24-22.372-9.633-22.675a2.088 2.088 0 0 1-.384-2.921 2.082 2.082 0 0 1 2.915-.394c.46.35 11.273 8.773 11.273 25.99a2.087 2.087 0 0 1-2.086 2.085z"></path><path fill="#FFAF18" d="M1112.79 680.62c42.42-66.49 99.979-102.28 99.979-102.28s57.561 35.79 99.98 102.28c-29.73 16.109-63.79 25.26-99.98 25.26-36.189 0-70.249-9.151-99.979-25.26z"></path><path fill="#353640" d="M1268.24 1263.195H1157.3a2.087 2.087 0 0 1-1.694-.869l-71.97-100.271a2.085 2.085 0 0 1 3.388-2.432l71.346 99.401h108.801l70.979-98.89c.383-10.662 5.58-152.62 16.301-315.323 5.742-87.22-33.33-154.503-67.118-195.588-36.697-44.621-75.278-68.875-75.663-69.115a2.085 2.085 0 0 1 2.202-3.541c.391.243 39.463 24.788 76.593 69.899 21.82 26.511 38.735 54.849 50.274 84.229 14.437 36.757 20.45 75.243 17.873 114.39-11.089 168.287-16.266 314.37-16.317 315.825-.014.411-.15.809-.39 1.143l-71.97 100.271a2.084 2.084 0 0 1-1.695.871z"></path><path fill="#FFF" d="M1209.67 707.897c-6.34 0-10.01-.329-10.151-.343a2.085 2.085 0 0 1 .4-4.15c.547.052 55.384 4.918 111.863-24.632a2.085 2.085 0 1 1 1.933 3.695c-43.079 22.54-85.264 25.43-104.045 25.43z"></path><path fill="#59BD9F" d="M1231.09 2159.97s-49.08-53.88-116.29-4.27c-67.21 49.609-57.08 125.359-20.27 124.83 36.81-.54 25.069-63.48 89.079-49.08 64.021 14.4 95.981-24.39 47.481-71.48zM1337.22 2176.82s-29.85-40.32-2.109-93.67c27.739-53.34 107.76-62.41 149.899-43.74 42.141 18.67 56.25 72.82 35.98 84.56-20.271 11.73-40.78-31.75-79.721-17.879-38.939 13.869-48.009 123.229-104.049 70.729z"></path><path fill="#9FE6D1" d="M1257.12 2090.68s-21.76 21.811-51.63-34.2c-29.87-56.01-32.01-121.09 45.34-150.43s62.95 20.53 40.28 46.141c-22.671 25.6 6.409 44.8 18.67 89.609 12.27 44.81-52.66 48.88-52.66 48.88z"></path><path fill="#2A1D19" d="M1313.769 2301.285a2.083 2.083 0 0 1-2.067-1.82c-.025-.194-.755-6.424-.303-17.893a136.192 136.192 0 0 0-4.818-25.31c-6.429-22.118-21.889-53.606-59.036-78.011-29.655-19.481-61.88-21.186-95.779-5.063-25.414 12.088-42.205 30.151-42.371 30.333a2.085 2.085 0 0 1-3.068-2.824c.703-.764 17.512-18.843 43.648-31.274 24.272-11.545 61.298-19.989 99.86 5.344 38.283 25.15 54.195 57.665 60.803 80.512a142.136 142.136 0 0 1 2.172 8.476c3.293-28.482 13.041-72.742 40.167-128.172 19.129-39.097 44.134-62.611 74.319-69.89 24.007-5.793 43.875.58 51.355 2.978.931.299 1.893.606 2.208.667a2.086 2.086 0 0 1-.119 4.167c-.67 0-1.458-.253-3.362-.863-50.308-16.124-92.03 6.271-120.655 64.774-33.17 67.779-40.093 118.415-41.155 143.643 1.032 10.917.326 17.893.275 18.363a2.084 2.084 0 0 1-2.052 1.863h-.022z"></path><path fill="#2A1D19" d="M1313.768 2301.285a2.086 2.086 0 0 1-2.083-2.015c-.042-1.253-4.938-126.437-63.69-219.81-31.336-49.798-26.379-88.493-16.702-112.186 10.498-25.702 28.195-39.375 28.944-39.944a2.084 2.084 0 0 1 2.526 3.318c-.175.134-17.647 13.67-27.684 38.386-13.253 32.633-7.566 70.05 16.444 108.206 31.036 49.323 46.872 107.023 54.692 146.742 8.468 43.01 9.626 74.831 9.637 75.147a2.085 2.085 0 0 1-2.084 2.156z"></path><path fill="#F2889E" d="M1245.34 2291.2v26.979s-67.46 28.91-57.82 83.851c9.631 54.93 42.4 131.07 42.4 131.07h167.701s32.771-76.141 42.399-131.07c9.641-54.94-57.819-83.851-57.819-83.851V2291.2H1245.34z"></path><path fill="#2A1D19" d="M1370.63 2320.265h-125.29a2.086 2.086 0 0 1 0-4.17h125.29a2.086 2.086 0 0 1 0 4.17zM1398.07 2521.686h-60.811a2.086 2.086 0 0 1 0-4.17h60.811a2.086 2.086 0 0 1 0 4.17z"></path><path fill="#FCCAC3" d="m443.74 2206.18-22.98 205.83s1.23 50.21 38.92 50.55c37.69.33 48.101-50.85 48.101-50.85l39.92-198.77c-.001 0-48.811-67.169-103.961-6.76z"></path><path fill="#7DA3FB" d="M420.76 2412.01s-8.649 36.22-17.05 85.45l50.74 8.66s13.45-8.21 29.87 5.09l50.439 8.6s4.69-9.39 23.42 3.99c0 0 42.03 7.17 54.04 9.221 12.011 2.05 17.66-36.541-7.899-44.291-25.551-7.76-93.051-72.1-96.54-77.02-3.49-4.92-40.78 19.92-59.23 14-18.46-5.93-27.79-13.7-27.79-13.7z"></path><path fill="#FFF" d="M568.55 2481.56c-1.381 0-2.75-.298-4.028-1.031-4.796-2.762-5.757-12.096-5.905-17.37-4.596 1.764-13.155 4.181-18.052.152-4.635-3.805-5.109-13.282-4.95-18.862-5.557 3.221-15.396 7.844-19.525 3.054-3.803-4.392-4.466-18.645-4.549-25.953-11.384 6.744-46.452 26.585-59.619 23.211-14.668-3.75-27.664-12.034-28.21-12.386a2.086 2.086 0 0 1 2.254-3.509c.128.083 12.993 8.276 26.99 11.855 11.19 2.861 46.808-16.814 59.585-24.639a2.085 2.085 0 0 1 3.174 1.81c-.129 8.668.715 23.631 3.531 26.885 2.07 2.399 11.517-1.925 17.542-5.968a2.085 2.085 0 0 1 3.235 1.951c-.626 5.946-.315 16.453 3.189 19.329 3.803 3.126 13.484-.461 16.576-1.964a2.083 2.083 0 0 1 2.995 1.939c-.183 5.979.879 15.157 3.816 16.849 3.296 1.89 9.483-2.417 11.39-4.075a2.084 2.084 0 0 1 2.741 3.142c-.784.687-6.585 5.58-12.18 5.58z"></path><path fill="#2A1D19" d="M581.381 2509.445c-.116 0-.233-.01-.352-.029l-75.06-12.801a2.087 2.087 0 0 1-.632-.217c-24.43-13.047-32.334-11.123-39.309-9.43-3.379.82-6.874 1.669-11.701.847-14.109-2.41-38.728-6.6-38.728-6.6l.699-4.111s24.621 4.189 38.731 6.6c3.978.682 6.774 0 10.014-.787 7.669-1.866 16.357-3.977 41.959 9.644l72.94 12.439c1.673-4.827 7.129-17.687 18.517-20.446a2.086 2.086 0 0 1 .983 4.053c-11.386 2.759-16.005 19.139-16.05 19.304a2.09 2.09 0 0 1-2.011 1.534z"></path><path fill="#FCCAC3" d="m695.07 2239.229 11.939 206.761s9.66 49.29 46.87 43.29c37.2-6 38.86-58.21 38.86-58.21l5.949-202.65c.001 0-59.418-58.01-103.618 10.809z"></path><path fill="#7DA3FB" d="M707.01 2445.99s-2.439 37.159-2.439 87.11h51.47s11.88-10.36 30.31 0h51.16s3.051-10.051 23.76 0h54.82c12.179 0 11.271-38.99-15.229-42.341-26.5-3.35-103.851-55.43-108.12-59.689-4.26-4.271-36.85 26.489-56.03 23.75-19.192-2.74-29.702-8.83-29.702-8.83z"></path><path fill="#FFF" d="M862.912 2489.836a7.625 7.625 0 0 1-2.663-.471c-5.189-1.908-7.707-10.948-8.74-16.122-4.233 2.508-12.263 6.329-17.771 3.188-5.208-2.983-7.265-12.245-8.043-17.77-4.939 4.106-13.866 10.312-18.74 6.297-4.489-3.691-7.536-17.636-8.844-24.831-10.091 8.566-41.311 34.009-54.87 32.91-15.092-1.224-29.29-7.205-29.887-7.459a2.084 2.084 0 0 1-1.102-2.734 2.083 2.083 0 0 1 2.734-1.104c.14.06 14.191 5.974 28.593 7.141 11.507.918 43.318-24.449 54.599-34.312a2.085 2.085 0 0 1 3.433 1.251c1.327 8.569 4.67 23.185 7.994 25.918 2.439 2.008 11.034-3.837 16.3-8.832a2.087 2.087 0 0 1 3.516 1.381c.379 5.965 2.448 16.268 6.385 18.522 4.272 2.436 13.216-2.725 16.011-4.726a2.078 2.078 0 0 1 2.036-.22c.67.287 1.142.905 1.242 1.628.826 5.924 3.417 14.791 6.594 15.959 3.576 1.321 8.947-3.973 10.545-5.931a2.086 2.086 0 0 1 3.231 2.637c-.718.882-6.465 7.679-12.553 7.68z"></path><path fill="#2A1D19" d="M881.37 2515.075h-76.14c-.224 0-.447-.036-.659-.106-26.273-8.757-33.744-5.536-40.335-2.693-3.191 1.377-6.492 2.8-11.386 2.8h-39.289a2.086 2.086 0 0 1 0-4.17h39.289c4.033 0 6.676-1.14 9.735-2.459 7.248-3.126 15.457-6.667 42.983 2.459h73.988c.838-5.04 4.059-18.635 14.83-23.271a2.086 2.086 0 0 1 1.648 3.83c-10.77 4.636-12.572 21.56-12.589 21.729a2.086 2.086 0 0 1-2.075 1.881z"></path><path fill="#FCCAC3" d="m725.78 1623.771 47.319 31.459c9.86 6.271-.39 15.66-7.63 11.311-3.39-2.04-59.04-30.13-73.3-37.58-14.25-7.439-18.18-21.85-18.18-21.85l-206.28-73.34c-53.729-19.101-1.52-92.391 51.25-67.431l187.42 95.181s9.84-9.771 27.87-9.801c18.03-.029 35.36-.6 37.69 8.71 2.34 9.301-30.591 10.9-30.591 10.9s57.601 36.99 65.24 41.55c7.641 4.561 5.96 16.46-6.34 10.98-12.3-5.471-55.64-28.561-55.64-28.561s60.14 36.92 63.909 40.78c3.591 3.67-1.59 12.35-7 8.94l-65.42-35.341 59.4 38.721c7.07 4.439 2.73 15.67-7.65 9.59l-62.067-34.218z"></path><path fill="#7DA3FB" d="M427.48 1512.7c3.89 15.35 15.989 29.47 43.42 36.779 66.34 17.66 47.619 19.851 98.26 33.551 12.439-7.351 22.78-92.641 22.78-92.641l-31.12-18.22s-64.87-39.56-99.04-25.68c-33.7 13.681-34.29 64.761-34.3 66.211z"></path><path fill="#2A1D19" d="M707.437 1597.385a2.085 2.085 0 0 1-.292-4.149c28.156-4.015 32.124-22.135 32.161-22.317a2.086 2.086 0 0 1 4.088.824c-.174.863-4.618 21.195-35.66 25.622-.1.013-.199.02-.297.02z"></path><path fill="#353640" d="M486.689 1553.84s-25.52 77.69-26.319 147.3c-.8 69.62-1.601 299.261-1.601 299.261s-12.38 93.819 57.24 96.81c65.63 2.811 81-33.4 82.551-37.561l.119-.34.021-.05c3.989-10.8 18.91-25.56 18.91-83.67 0-62.41 24.72-385.19 26.399-416.88 1.68-31.69-131.219-80.01-157.32-4.87z"></path><path fill="#2A1D19" d="M617.08 1993.53c.34-5.471.53-11.431.53-17.94 0-32.63 6.76-136.45 13.45-232.63-31.78-.729-55.16 1.4-55.16 1.4l41.18 249.17z"></path><path fill="#353640" d="M729.83 1584.16s45.99 292.83 61.99 351.24c4.97 18.14 8.93 41.14 12.04 64.239.06.84 4.25 68.881-52.61 87.57-57.21 18.8-81.25-55.6-81.25-55.6s-76.811-236.051-85.61-268.051c-8.8-32.01-28.81-28.01-32.81-90.42s19.21-124.83 56.81-138.43c37.61-13.598 92.02-15.998 121.44 49.452z"></path><path fill="#2A1D19" d="M603.53 1749.315c-25.459 0-56.765-9.749-58.156-10.187a2.084 2.084 0 1 1 1.251-3.978c.353.111 35.569 11.088 60.889 9.906a2.086 2.086 0 0 1 .192 4.166 90.963 90.963 0 0 1-4.176.093z"></path><path fill="#2A1D19" d="M658.589 1998.546a2.085 2.085 0 0 1-1.985-1.45c-.691-2.157-69.148-215.919-72.86-228.234-3.658-12.094-9.626-23.411-9.686-23.524a2.085 2.085 0 0 1 3.685-1.953c.252.476 6.218 11.792 9.993 24.272 3.703 12.283 72.149 226.011 72.84 228.168a2.084 2.084 0 0 1-1.987 2.721z"></path><path fill="#353640" d="M458.77 2000.4s-32.81 207.239-40.01 244.05c-7.2 36.81-26.41 67.21-20.01 92.02 6.41 24.801-1.59 51.21-1.59 51.21s120.82 14 131.62 14c10.81 0 .409-17.2 7.609-44.01 7.2-26.8 59.21-284.86 61.61-296.06.16-.771.4-1.551.7-2.351 0 0 19.729-112.7-49.891-115.69-69.619-2.979-90.038 56.83-90.038 56.831z"></path><path fill="#FCCAC3" d="M595.14 1154.66h58.01l8.411 82.819-70.821-10.399z"></path><path fill="#2A1D19" d="M595.14 1154.66h58.011l4.8 47.26c-29.55-2.79-50.38-17.45-63.771-31.34l.96-15.92z"></path><path fill="#7DA3FB" d="M469.5 1290.74s-6.08 24.54-9.5 39.72c-17.35 77-19 94.96-31.63 171.061-7.47 44.939 79.1 71.92 115.81-61.28 0 0 39.061-138.79 39.98-191.82.91-53.022-97-52.871-114.66 42.319z"></path><path fill="#FCCAC3" d="M685.85 1064.81s.301 2.711.801 7.381l.01.02v.021c.16 1.21 4.439 32 12.92 36.3 5.5 2.79-1.63 10.51-7.54 15.76.78 7.93 1.55 16.021 2.26 23.85 3.48 38.45-29.66 54.311-93.39 40.36-69.13-39.53-75.86-129.81-30.61-156.649 45.249-26.843 108.388-19.792 115.549 32.957z"></path><path fill="#2A1D19" d="M600.91 1188.5c-16.88 1.66-68.57-29.17-74.83-97.021-6.26-67.859 31.68-82.149 31.68-82.149s-15.33-22.67 31.17-22.83c46.5-.15 63.15-6.64 78.17-20.07 15.01-13.43 86.69 83.72 17.811 93.061-18.98 6.5-51.66-1.07-31.811 52 3.74 10.02-21.21-2.74-24.97 6.83-13.33 33.979-14.16 68.899-27.22 70.179z"></path><path fill="#FCCAC3" d="M651.311 1119.56s-13.82-30.05-30.33-20.159c-16.5 9.899-8.221 60.55 19.789 42.18l10.541-22.021z"></path><path fill="#2A1D19" d="M642.802 1130.925c-.742 0-1.46-.397-1.837-1.095a27.792 27.792 0 0 0-3.702-5.318l-10.774 2.153a2.085 2.085 0 1 1-.817-4.089l7.762-1.551c-5.6-4.106-11.067-4.397-11.401-4.411a2.087 2.087 0 0 1-2.001-2.162c.043-1.148 1.021-2.03 2.15-2.006.588.02 14.497.66 22.454 15.403a2.085 2.085 0 0 1-1.834 3.076z"></path><path fill="#FFF" d="M690.01 1138.45c-1.05-.57-8.74-9.32-16.35-8.32-7.61 1 1.76 21.91 16.609 21.21l-.259-12.89z"></path><path fill="#2A1D19" d="M666.65 1078.79s17.77 2.04 20.649-2.45c2.881-4.489-1.319-10.34-20.649 2.45zM672.85 1091.56a3.352 3.352 0 0 1 2.851-3.77 3.352 3.352 0 0 1 3.77 2.84l.72 5.141a3.352 3.352 0 0 1-2.85 3.77 3.351 3.351 0 0 1-3.77-2.84l-.721-5.141z"></path><path fill="#353640" d="M538.128 1092.706c-.933 0-1.782-.63-2.02-1.575-7.128-28.234.551-47.009 8.247-57.787 8.368-11.717 18.353-16.654 18.774-16.858a2.085 2.085 0 0 1 1.822 3.751c-.202.1-9.622 4.833-17.318 15.695-10.352 14.609-12.869 32.838-7.481 54.179a2.085 2.085 0 0 1-2.024 2.595zM614.448 999.645a2.085 2.085 0 0 1-.112-4.167c.319-.018 32.133-1.986 52.268-21.649a2.085 2.085 0 0 1 2.913 2.983c-21.277 20.779-53.589 22.755-54.954 22.83a2.236 2.236 0 0 1-.115.003zM803.86 1999.6c6.899 51.28 9.56 103.03 9.56 103.03s.01 187.64.41 200.85c.4 13.2 8.4 36.4 3.2 55.61-5.2 19.2-3.2 60.811-3.2 60.811H691.4s-2.601-41.41-4-55.42c-1.4-14-11.4-3.601-9-19 2.399-15.41 6.409-39.41 5.199-65.82-1.199-26.399-13.6-248.05-13.6-248.05s2.43-68.83 59.64-87.63c56.981-18.731 74.081 55.009 74.221 55.619z"></path><path fill="#647EDD" d="M517.48 1216.82s91.52-20.73 213.149 6.47c0 0 43.21 9.6 34.4 92.02-8.8 82.42-24.04 338.59-24.04 338.59h-284.86c-32.81 0 20.05-96.939 20.05-96.939s-15.609-16-14.01-27.61c1.6-11.6 10.41-43.6 10.41-112.02v-113.62c.001-30.001 12.091-70.482 44.901-86.891z"></path><path fill="#FFF" d="M476.181 1559.045c-.602 0-1.2-.26-1.612-.762-1.622-1.973-15.833-19.509-15.553-27.477.069-2.065.851-5.978 2.033-11.899 3.315-16.605 9.485-47.515 9.256-84.795-.296-49.847.186-111.442.19-112.059a2.084 2.084 0 0 1 2.084-2.068h.017a2.084 2.084 0 0 1 2.068 2.102c-.005.616-.487 62.183-.19 112 .232 37.705-5.992 68.884-9.336 85.635-1.101 5.516-1.896 9.5-1.955 11.228-.169 4.827 8.87 17.703 14.607 24.687a2.085 2.085 0 0 1-1.609 3.408z"></path><path fill="#2A1D19" d="M598.451 1590.365h-.033c-39.801-.629-71.286-17.228-90.691-31.042-21.011-14.958-32.466-29.56-32.943-30.174a2.085 2.085 0 0 1 3.293-2.56c.114.146 11.633 14.812 32.184 29.418 18.902 13.435 49.551 29.577 88.223 30.188a2.087 2.087 0 0 1 2.052 2.118 2.087 2.087 0 0 1-2.085 2.052zM633.232 1551.849c-2.893 0-5.858-.094-8.905-.288a2.085 2.085 0 0 1 .265-4.162c58.592 3.74 87.35-31.015 101.166-60.825a2.086 2.086 0 0 1 3.784 1.754c-13.646 29.442-41.33 63.521-96.31 63.521zM617.287 1222.535c-25.579 0-33.796-11.061-34.271-11.734a2.086 2.086 0 0 1 3.399-2.416c.214.289 16.23 20.909 74.647 1.802a2.086 2.086 0 0 1 1.296 3.964c-18.99 6.212-33.735 8.384-45.071 8.384z"></path><path fill="#7DA3FB" d="M689.61 1345.32s33.21 70.819 40.01 84.819 8.01 60.811 23.61 47.21c0 0 9.6 20.41 20.8 39.61 6.58 11.27 23.63 31.77 45.659 36.27 52.471-4.1 57.86-53 21.57-137.68 0 0-56.08-132.83-88.45-174.84-32.379-41.999-108.789 19.211-63.199 104.611z"></path><path fill="#2A1D19" d="M793.359 1541.725c-.45 0-.904-.146-1.286-.445-20.748-16.285-35.612-50.313-39.691-60.389-2.052 1.347-3.869 1.343-5.173 1.003-8.01-2.084-12.676-21.361-16.769-40.927-.645-3.082-1.202-5.744-1.614-7.289-2.055-7.691-32.033-69.73-47.598-101.459a2.086 2.086 0 0 1 3.745-1.837c1.845 3.761 45.21 92.218 47.882 102.22.442 1.655.983 4.239 1.667 7.511 2.262 10.813 7.559 36.137 13.737 37.745.956.253 2.1-.382 3.398-1.876a2.085 2.085 0 0 1 3.527.637c.161.431 16.396 43.274 39.465 61.381a2.085 2.085 0 0 1-1.29 3.725z"></path><path fill="#FCCAC3" d="m817.77 1450.68 167.341-127.21s-4.5-13.109 3.319-29.35c7.83-16.25 14.87-32.09 24.271-30.14 9.39 1.96-3.53 32.29-3.53 32.29s59.29-41.681 66.73-46.57c7.43-4.89 17.41 1.96 7.819 11.55-9.58 9.58-51.55 42.54-51.55 42.54s30.63-20.04 36.3-18.08c5.67 1.95 7.44 8.41 4.891 12.721 0 0 7.439.189 10.079 5.479 2.641 5.28-1.369 8.51-1.369 8.51s3.619 1.761 4.8 5.87c1.17 4.11.2 9.49-3.13 11.65-3.33 2.15-31.21 26.12-44.12 35.71-12.92 9.59-27.59 6.85-27.59 6.85l-155.9 153.7c-40.611 40.03-83.831-38.889-38.361-75.52z"></path><path fill="#2A1D19" d="M1041.422 1319.135a2.085 2.085 0 0 1-1.052-3.887l31.94-18.62a2.085 2.085 0 0 1 2.101 3.603l-31.94 18.62a2.087 2.087 0 0 1-1.049.284zM1050.222 1335.946a2.085 2.085 0 0 1-1.166-3.815l31.851-21.44a2.085 2.085 0 0 1 2.329 3.459l-31.851 21.44a2.076 2.076 0 0 1-1.163.356zM999.612 1305.135a2.086 2.086 0 0 1-1.205-3.788l16.27-11.49a2.085 2.085 0 1 1 2.406 3.406l-16.27 11.49a2.074 2.074 0 0 1-1.201.382z"></path><path fill="#7DA3FB" d="M819.63 1553.22c15.51 3.19 33.49-1.54 52.021-23.05 44.81-52.01 53.02-39.81 51.819-54.21-1.2-14.41-43.409-86.42-43.409-86.42l-38.801 26.01s-63.88 41.141-66.279 77.95c-2.371 36.29 43.349 59.08 44.649 59.72z"></path><path fill="#2A1D19" d="M911.66 1493.295a2.086 2.086 0 0 1-2.007-1.52c-.044-.158-4.546-15.962-14.524-35.725-3.85-7.627-8.141-14.724-11.928-20.985-6.388-10.563-11.905-19.686-13.46-27.981a2.086 2.086 0 0 1 4.099-.769c1.416 7.553 6.751 16.375 12.93 26.592 3.825 6.325 8.161 13.494 12.082 21.263 7.677 15.203 12.179 28.14 13.945 33.643l6.641-4.806c2.855-4.292 2.435-5.767-2.033-17.729a778.78 778.78 0 0 1-2.444-6.607c-5.696-15.655-30.026-56.876-35.564-66.179-25.313 16.96-52.701 36.118-52.981 36.314a2.083 2.083 0 0 1-2.903-.513 2.083 2.083 0 0 1 .513-2.903c.287-.201 29.037-20.313 54.877-37.585a2.077 2.077 0 0 1 1.614-.301 2.091 2.091 0 0 1 1.332.96c1.242 2.066 30.488 50.799 37.032 68.781.9 2.475 1.712 4.649 2.431 6.573 4.53 12.127 5.747 15.387 1.375 21.83a2.077 2.077 0 0 1-.502.518l-9.3 6.73a2.08 2.08 0 0 1-1.225.399zM473.519 1663.615a2.085 2.085 0 0 1-.059-4.169l267.471-7.63c1.17-.063 2.11.874 2.144 2.024a2.085 2.085 0 0 1-2.024 2.144l-267.471 7.63-.061.001z"></path><path fill="#FCCAC3" d="m2425.74 2229.479 83.32 214.771s61.93 48.83 84.34-41.899l-64.84-212.36c.001-.001-70.43-36.14-102.82 39.488z"></path><path fill="#949899" d="M2484.87 2418.87s17.87-19 51.229-3.54c33.36 15.45 47.58-5.58 56.301-18.899 8.72-13.32 19.62 30.739 31.35 89.81 0 0-206.109 40.91-232.14 46.07-26.021 5.17-36.7-16.591-36.94-22.61-.25-6.02 97.351-53.27 130.2-90.831z"></path><path fill="#2A1D19" d="M2378.251 2517.665c-16.191 0-24.402-5.975-24.831-6.296a2.085 2.085 0 0 1 2.493-3.343c.119.088 12.295 8.789 36.361 4.019 22.861-4.542 67.402-13.379 95.639-18.981l8.811-1.748c14.131-2.805 24.072-8.988 32.844-14.445 7.79-4.846 14.519-9.031 22.507-10.02 4.523-.56 9.97-.218 15.735.145 15.486.971 34.765 2.181 47.779-13.658a2.086 2.086 0 0 1 3.223 2.647c-14.369 17.489-34.824 16.206-51.264 15.173-5.564-.35-10.823-.68-14.962-.167-7.077.876-13.444 4.836-20.816 9.422-9.073 5.645-19.358 12.042-34.233 14.994l-8.812 1.748c-28.236 5.603-72.776 14.439-95.639 18.981-5.526 1.094-10.472 1.529-14.835 1.529z"></path><path fill="#FFF" d="M2434.152 2495.195a2.084 2.084 0 0 1-1.051-3.887c3.14-1.828 77.033-44.795 89.439-48.247 4.157-1.155 7.376-.696 9.562 1.368 2.275 2.15 2.733 5.461 2.688 7.99l61.108-21.447a2.085 2.085 0 0 1 1.381 3.935l-64.22 22.539a2.084 2.084 0 0 1-2.727-2.412c.302-1.41.75-5.839-1.099-7.579-1.048-.986-2.923-1.115-5.576-.377-11.894 3.31-87.694 47.389-88.459 47.833a2.059 2.059 0 0 1-1.046.284z"></path><path fill="#5630AD" d="m2497.311 2076.13 85.189 234.78c.05.04 19.21 17.14 9.13 25.149l5.51 15.2-128.02 35.21s-74.761-157.78-112.101-262.33a769.832 769.832 0 0 1-6.31-18.37c-.16-.69-16.47-70.97 58.85-83.44 75.691-12.529 87.751 53.801 87.752 53.801z"></path><path fill="#2A1D19" d="M2488.261 2144.285a2.084 2.084 0 0 1-1.328-3.693c.226-.189 20.087-17.432 8.356-63.953a2.085 2.085 0 1 1 4.043-1.019c12.44 49.337-8.839 67.446-9.751 68.193a2.074 2.074 0 0 1-1.32.472zM2477.05 2363.58s71.42-24.271 102.66-25.47c0 0-29.57-12.41-102.66 25.47z"></path><path fill="#5630AD" d="M2517.05 1580.56s33.07 91.761 26.67 172.841c-6.399 81.079-46.409 322.729-46.409 322.729 24.33 81.19-104.011 132.131-146.591 29.67-29.12-88.6-14.84-107.96-11.84-163.029 3.2-58.681 28.81-240.051 41.61-330.74 12.8-90.681 114.16-103.481 136.56-31.471z"></path><path fill="#2A1D19" d="M2388.265 1885.489c-13.15 0-27.774-2.017-43.661-7.197a2.086 2.086 0 0 1 1.293-3.965c40.319 13.15 72.224 5.297 91.886-3.607 21.366-9.675 33.348-22.653 33.466-22.784a2.085 2.085 0 0 1 3.085 2.806c-.503.553-12.565 13.653-34.656 23.697-12.605 5.73-30.063 11.05-51.413 11.05z"></path><path fill="#2A1D19" d="M2350.71 2105.771c-29.101-88.57-14.83-107.94-11.83-163 1.86-34.091 11.28-109.601 21.36-184.671 41.47 7.73 79.07 18.03 76.88 29.74-4.81 25.61-86.41 317.931-86.41 317.931z"></path><path fill="#2A1D19" d="M2388.373 1885.542c-14.327 0-28.97-2.421-43.77-7.25a2.085 2.085 0 1 1 1.293-3.965c22.767 7.43 45.119 8.991 66.437 4.64a2.085 2.085 0 1 1 .834 4.086 123.768 123.768 0 0 1-24.794 2.489z"></path><path fill="#5630AD" d="M2463.7 1610.979s39.47 107.75 3.2 182.431c-36.271 74.68-151.5 265.659-151.5 265.659-26.82 92.24-149.32 74.311-157.9-28.81 0 0-2.13-46.41 30.95-123.229 33.069-76.811 84.28-204.841 117.35-283.791 33.08-78.949 131.23-85.349 157.9-12.26z"></path><path fill="#2A1D19" d="M2324.488 2046.025a2.085 2.085 0 0 1-1.803-3.129c1.187-2.051 118.903-205.51 140.089-245.816 20.911-39.784 17.147-90.963 17.107-91.476a2.085 2.085 0 0 1 1.914-2.242c1.144-.105 2.152.766 2.242 1.913.042.524 3.91 52.874-17.572 93.744-21.225 40.381-138.984 243.914-140.171 245.965a2.082 2.082 0 0 1-1.806 1.041z"></path><path fill="#FCCAC3" d="m2179.28 2223.61-6.25 230.279s38.21 68.99 93.979-6.01l22.36-220.91c.001.001-50.959-60.569-110.089-3.359z"></path><path fill="#949899" d="M2156.57 2439.979s21.229-15.159 50.949 6.5c29.711 21.65 47.75 3.791 58.9-7.58 11.14-11.369 13.26 33.971 13.26 94.2h-236.66c-26.529 0-32.77-23.42-31.84-29.38.93-5.948 105.861-33.289 145.391-63.74z"></path><path fill="#2A1D19" d="M2154.11 2517.515h-106.5c-26.534 0-37.526-11.885-37.981-12.391a2.087 2.087 0 0 1 .156-2.945 2.087 2.087 0 0 1 2.941.152c.188.204 10.465 11.014 34.884 11.014h106.5c14.399 0 25.35-4.128 35.011-7.77 8.59-3.237 16.01-6.031 24.041-5.444 4.545.33 9.819 1.726 15.403 3.202 15 3.965 33.666 8.901 49.522-4.105a2.086 2.086 0 0 1 2.645 3.225c-17.503 14.358-37.314 9.121-53.233 4.912-5.391-1.426-10.482-2.772-14.641-3.075-7.11-.514-14.138 2.124-22.266 5.188-9.994 3.766-21.322 8.037-36.482 8.037z"></path><path fill="#FFF" d="M2092.38 2505.016a2.084 2.084 0 0 1-.678-4.057c3.435-1.182 84.271-28.948 97.11-29.917 4.305-.327 7.37.753 9.112 3.205 1.814 2.553 1.62 5.891 1.085 8.363l64.115-9.154a2.086 2.086 0 0 1 .589 4.129l-67.38 9.62a2.087 2.087 0 0 1-2.207-2.897c.57-1.325 1.871-5.583.395-7.651-.838-1.174-2.662-1.666-5.396-1.457-12.31.929-95.232 29.414-96.069 29.702a2.068 2.068 0 0 1-.676.114z"></path><path fill="#5630AD" d="M2315.4 2059.07s-4.271 206.97-21.33 362.729h-151.5s.31-6.229.83-17.149c-26.391-14.41 1.789-37.57 1.789-37.57 4.07-87.13 11.541-255.79 12.311-336.82 0 0 22.68-60.729 89.36-59.67 66.68 1.07 68.54 88.48 68.54 88.48z"></path><path fill="#2A1D19" d="M2152.72 2400.92s53.88 19.74 135.5 0c0 0-36.5 6.64-135.5 0zM2267.948 2125.085a2.085 2.085 0 0 1-.423-4.126c36.553-7.613 45.661-58.624 45.749-59.139a2.081 2.081 0 0 1 2.405-1.705 2.084 2.084 0 0 1 1.706 2.403c-.376 2.215-9.66 54.327-49.011 62.522a1.997 1.997 0 0 1-.426.045z"></path><path fill="#FCCAC3" d="m2290.33 1298.91 88.02-65.08c76.28-52.81 108.49 32.021 68.811 64.01-39.67 31.99-45.87 38.41-97.08 82.15s-100.59 40.37-130.16-23.47a714.44 714.44 0 0 1-2.18-4.78c-6.19-30.59 27.999-23.48 72.589-52.83z"></path><path fill="#91103B" d="M2403.42 1197.021s33.07-22.41 57.61-12.271c24.54 10.13 40.409 61.78 3.13 108.5-37.271 46.729-129.021 112.88-129.021 112.88s-35.21-125.9-30.939-130.7c4.27-4.8 11.729-1.6 11.729-1.6l87.491-76.809z"></path><g fill="#FCCAC3"><path d="M2491.83 1098.03s-4.26 36.81-6.4 68.279c-2.129 31.48-52.27 47.221-73.35 28.011l19.21-71.75s11.649-50.35 60.54-24.54z"></path><path d="M2436.767 1204.776c-10.517 0-19.782-3.166-26.091-8.915a2.081 2.081 0 0 1-.609-2.08l19.21-71.75c.06-.266 8.074-33.448 37.063-33.448 8.004 0 16.908 2.558 26.464 7.603a2.085 2.085 0 0 1 1.098 2.083c-.043.368-4.279 37.123-6.392 68.181-1.55 22.926-27.489 38.326-50.743 38.326zm-22.335-11.177c5.514 4.528 13.386 7.008 22.335 7.008 21.372 0 45.189-13.838 46.583-34.438 1.883-27.677 5.444-59.845 6.246-66.947-8.464-4.293-16.282-6.468-23.256-6.468-25.656 0-32.73 29.052-33.019 30.289l-18.889 70.556z"></path></g><g fill="#2A1D19"><path d="M2491.83 1098.03s-.939 8.189-2.17 20.149c-8.92 20-28.72 47.931-68.99 44.061l10.62-39.67s11.65-50.35 60.54-24.54z"></path><path d="M2428.08 1164.688c-2.479 0-5.039-.125-7.609-.373a2.082 2.082 0 0 1-1.815-2.614l10.62-39.67c.06-.266 8.075-33.447 37.063-33.447 8.004 0 16.908 2.558 26.464 7.603a2.087 2.087 0 0 1 1.098 2.082c-.009.082-.952 8.316-2.167 20.125-.022.22-.08.434-.17.636-7.605 17.051-25.965 45.658-63.484 45.658zm-4.749-4.326c1.605.104 3.194.156 4.749.156 33.231 0 50.709-23.246 59.54-42.885.908-8.811 1.66-15.59 1.977-18.411-8.464-4.293-16.283-6.468-23.257-6.468-25.711 0-32.948 29.984-33.019 30.287l-9.99 37.321z"></path></g><path fill="#2A1D19" d="M2419.29 1006.79s-51.74 14.939-69.34-10.94c-17.61-25.87 34.399-34.14 34.399-34.14s-28.8-33.6 5.87-43.74 65.08 26.141 65.08 26.141-6.399-28.811 14.94-33.61 63.479 68.55 63.479 68.55c34.23-5.439 30.58 69.07 26.061 69.46-6.13.54-12.99-12.109-12.99-12.109s13.34 91.93-43.74 73.439c-57.079-18.501-88.559-63.311-83.759-103.051z"></path><path fill="#FCCAC3" d="M2403.561 997.72s-26.141 66.681-30.41 107.221c-4.271 40.539 58.149 72.02 110.96 25.069 52.81-46.939 58.409-115.22 21.6-141.62-36.801-26.411-90.421-5.07-102.15 9.33z"></path><path fill="#2A1D19" d="M2388.35 987.85s12.541 33.61 90.42 41.61c0 0-17.34 78.42 9.341 88.02 26.67 9.601 47.93-13.38 47.93-13.38s29.149-101.58-40.729-132.52c-69.882-30.94-106.962 16.27-106.962 16.27zM2401.92 1095.06s16.99-4.02 20.57-3.35c3.57.67 2.12 15.2-7.94 16.76-10.06 1.57-13.75-6.93-12.63-13.41zM2399.348 1087.07c-1.927 0-3.849-.291-5.249-1.173-1.172-.739-1.922-1.826-2.168-3.145-1.129-6.053 15.31-30.617 16.702-32.18a2.086 2.086 0 0 1 3.113 2.775c-2.963 3.324-16.178 25.095-15.715 28.649.022.118.059.227.29.373 1.594 1.006 6.427.385 9.19-.353a2.084 2.084 0 1 1 1.077 4.028c-.892.24-4.072 1.026-7.24 1.026z"></path><path fill="#2A1D19" d="M2427.13 1042.71a4.049 4.049 0 0 1 4.63-3.36c2.2.351 3.7 2.431 3.35 4.63l-1.68 10.521c-.35 2.2-2.42 3.7-4.62 3.35a4.036 4.036 0 0 1-3.36-4.62l1.68-10.521zM2391.29 1043.3a3.501 3.501 0 0 1 4-2.91 3.502 3.502 0 0 1 2.899 4l-1.449 9.101a3.507 3.507 0 0 1-4 2.899 3.496 3.496 0 0 1-2.91-4l1.46-9.09zM2388.27 1031.32s14.94 1.47 18.141-2.53c3.199-4-3.601-7.47-10.141-6-6.53 1.47-11.47 8.13-8 8.53zM2422.689 1031.68s21.471 4.53 22.94 1.471c1.46-3.07-7.34-11.74-15.61-10.54-8.259 1.199-10.669 8.139-7.33 9.069z"></path><path fill="#F72E70" d="m2391.55 1189.79 98.69-36.28s32.529 60.811 44.27 103.49c11.74 42.67-5.33 254.99-5.33 254.99l17.601 132.29s13.87 12.27 6.939 22.939c-6.939 10.66-161.64 99.21-302.47 60.811 0 0-4.26-8 1.6-14.4 5.871-6.41 14.141-20.28 14.141-20.28l38.14-198.699s13.87-126.96 22.94-186.171c9.059-59.209 63.479-118.69 63.479-118.69z"></path><path fill="#2A1D19" d="m2304.01 1500.46 1.12-5.811s5.53-50.619 11.89-102.84c38.23-57.279 91.4-122.739 149.36-151.66 0 0-28.27 184.57-36.81 233.641-5.53 31.85-76.44 31.109-125.56 26.67zM2448.25 1654.055a2.083 2.083 0 0 1-1.527-3.504c.517-.557 52.015-56.599 80.485-139.239a2.085 2.085 0 1 1 3.943 1.357c-28.771 83.511-80.852 140.158-81.374 140.72a2.079 2.079 0 0 1-1.527.666zM2294.973 1700.695c-19.006 0-28.313-5.129-29.023-5.539a2.086 2.086 0 0 1 2.077-3.617c.386.219 32.623 17.587 102.242-14.909a2.086 2.086 0 0 1 1.763 3.779c-34.312 16.017-59.721 20.286-77.059 20.286z"></path><path fill="#FCCAC3" d="M2140.85 1139.57s-17.68-6.45-28.43-23.721c-10.74-17.279-12.92-61.13-12.06-68.829l77.689 19.72s7.681-38.261 18.49-36.28c11.01 2.03 7.57 21.85 2.479 45.52 0 0 9.591 25.711-10.159 37.95 38.409 73.62 101.47 184.98 101.47 184.98s31.77 55.92-8.24 79.399c-39.22 23.011-63.38-24.609-64.31-26.489-29.749-66.33-76.929-212.25-76.929-212.25z"></path><path fill="#2A1D19" d="M2146.26 1108.38s1.061-17.34 22.94-29.34l-22.94 29.34zM2288.752 1319.585a2.085 2.085 0 0 1-2.079-2.261l1.58-18.59a2.073 2.073 0 0 1 2.254-1.901 2.085 2.085 0 0 1 1.9 2.254l-1.58 18.59a2.084 2.084 0 0 1-2.075 1.908z"></path><path fill="#353640" d="M2219.96 1051.64h-298.01c-30.351 0-55.19 24.83-55.19 55.19v465.78c0 30.35 24.84 55.18 55.19 55.18h298.01c30.351 0 55.19-24.83 55.19-55.18v-465.78c0-30.36-24.84-55.19-55.19-55.19z"></path><path fill="#5630AD" d="M2219.96 1051.64h-298.01c-30.351 0-55.19 24.84-55.19 55.19h408.391c-.001-30.351-24.841-55.19-55.191-55.19z"></path><path fill="#949899" d="M1903.88 1153.22h72.84v14.29h-72.84z"></path><path fill="#FFAF18" d="M2013.15 1153.22h93.26v14.29h-93.26z"></path><path fill="#949899" d="M1903.88 1189.64h72.84v14.3h-72.84zM1903.88 1262.49h72.84v14.29h-72.84zM1903.88 1408.17h72.84v14.3h-72.84zM1903.88 1553.86h72.84v14.29h-72.84z"></path><path fill="#5630AD" d="M2013.15 1189.64h62.35v14.3h-62.35z"></path><path fill="#949899" d="M2013.15 1226.07h72.84v14.29h-72.84z"></path><path fill="#5630AD" d="M2013.15 1262.49h112.03v14.29h-112.03z"></path><path fill="#949899" d="M2013.15 1298.91h148.45v14.29h-148.45z"></path><path fill="#FFAF18" d="M2013.15 1335.33h45.8v14.29h-45.8z"></path><path fill="#5630AD" d="M2013.15 1371.75h72.84v14.3h-72.84z"></path><path fill="#FFAF18" d="M2013.15 1408.17h114.23v14.3h-114.23zM2013.15 1444.6h36.42v14.29h-36.42z"></path><path fill="#949899" d="M2013.15 1481.021h72.84v14.289h-72.84zM2013.15 1517.44h72.84v14.289h-72.84z"></path><path fill="#FFAF18" d="M2013.15 1553.86h72.84v14.29h-72.84z"></path><path fill="#5630AD" d="M2103.65 1189.64h131.9v14.3h-131.9z"></path><path fill="#949899" d="M2123.52 1153.22h73.4v14.29h-73.4z"></path><path fill="#FFAF18" d="M2183.4 1298.91h42.21v14.29h-42.21z"></path><path fill="#949899" d="M2145.59 1262.49h27.05v14.29h-27.05zM2201.33 1262.49h27.04v14.29h-27.04z"></path><path fill="#FFAF18" d="M2115.79 1226.07h72.85v14.29h-72.85zM2095.37 1371.75h72.85v14.3h-72.85z"></path><path fill="#5630AD" d="M2146.7 1408.17h91.06v14.3h-91.06z"></path><path fill="#949899" d="M2185.88 1371.75h30.91v14.3h-30.91z"></path><path fill="#5630AD" d="M2076.05 1335.33h157.85v14.29h-157.85z"></path><path fill="#FFAF18" d="M2106.14 1481.021h131.89v14.289h-131.89z"></path><path fill="#5630AD" d="M2065.02 1444.6h112.03v14.29h-112.03z"></path><path fill="#949899" d="M2191.12 1444.6h27.319v14.29h-27.319z"></path><path fill="#5630AD" d="M2098.13 1517.44h72.85v14.289h-72.85z"></path><path fill="#949899" d="M2189.75 1517.44h46.35v14.289h-46.35zM2100.89 1553.86h36.43v14.29h-36.43zM2159.939 1553.86h60.161v14.29h-60.161z"></path><path fill="#FCCAC3" d="M2306.86 1512.81c52.479 19.271 103.489-73.09 103.489-73.09s38.41-74.68 53.881-117.35c15.47-42.68-48.551-102.42-75.75-43.75l-73.11 126.83c-20.64 43.85-51.511 91.53-24.42 101.51l15.91 5.85z"></path><path fill="#FCCAC3" d="m2282.63 1447.85-118.81 114.41s-10.36-9.2-28.371-8.239c-18 .959-35.33 1.35-37.149 10.779-1.82 9.42 31.149 9.19 31.149 9.19s-55.47 40.109-62.85 45.09c-7.38 4.97-1.97 18.1 10.01 11.95 11.98-6.141 50.91-32.931 50.91-32.931s-34.07 25.63-37.62 29.69c-3.37 3.859 5.14 12.97 10.351 9.27l36.56-25.069-21.43 17.27c-6.811 4.83 3.14 13.14 13.17 6.49l19.35-10.26-4.18 4.68c-5.899 7.54 3.01 12.07 12.13 9.25 3.78-1.16 12.061-2.39 25.89-10.6 13.82-8.221 16.95-22.82 16.95-22.82l158.07-103.39c29.979-25.17 35.05-87.551 7.029-98.721-28.029-11.16-81.159 43.961-81.159 43.961z"></path><path fill="#2A1D19" d="M2301.697 1432.595a2.085 2.085 0 0 1-.221-4.157l14.02-1.52a2.085 2.085 0 1 1 .449 4.145l-14.02 1.52a2.19 2.19 0 0 1-.228.012z"></path><path fill="#FCCAC3" d="M2110.76 1031.75c4.971 0 9.04 4.07 9.04 9.04v14.5c0 4.97-4.069 9.04-9.04 9.04-4.979 0-9.04-4.07-9.04-9.04v-14.5c0-4.97 4.06-9.04 9.04-9.04zM2128.84 1030c-4.979 0-9.04 4.07-9.04 9.04v28.061c0 4.97 4.061 9.039 9.04 9.039 4.971 0 9.04-4.069 9.04-9.039v-28.061c0-4.97-4.069-9.04-9.04-9.04zM2168.63 1031.75h-.01c-5.63 0-10.24 4.62-10.24 10.25v23.89c0 5.641 4.61 10.25 10.24 10.25h.01c5.63 0 10.24-4.609 10.24-10.25V1042c0-5.63-4.61-10.25-10.24-10.25zM2148.12 1028.46h.01c5.63 0 10.25 4.61 10.25 10.25v31.4c0 5.64-4.62 10.25-10.25 10.25h-.01c-5.63 0-10.24-4.61-10.24-10.25v-31.4c0-5.64 4.61-10.25 10.24-10.25z"></path><path fill="#2A1D19" d="M2110.76 1066.415c-6.135 0-11.125-5.175-11.125-11.535v-13.68a2.086 2.086 0 0 1 4.17 0v13.68c0 4.061 3.12 7.365 6.955 7.365s6.955-3.304 6.955-7.365v-13.68a2.086 2.086 0 0 1 4.17 0v13.68c0 6.36-4.99 11.535-11.125 11.535z"></path><path fill="#2A1D19" d="M2128.84 1078.225c-6.135 0-11.125-5.174-11.125-11.534v-27.24a2.086 2.086 0 0 1 4.17 0v27.24c0 4.061 3.12 7.364 6.955 7.364s6.955-3.304 6.955-7.364v-27.24a2.086 2.086 0 0 1 4.17 0v27.24c0 6.359-4.99 11.534-11.125 11.534zM2168.924 1078.23c-.129 0-.258-.002-.386-.007-6.981-.288-12.243-5.792-12.243-12.803v-22.95a2.086 2.086 0 0 1 4.17 0v22.95c0 4.73 3.543 8.443 8.241 8.637 1.799.058 3.824-.773 5.373-2.262a8.765 8.765 0 0 0 2.706-6.375v-22.95a2.086 2.086 0 0 1 4.17 0v22.95c0 3.578-1.416 6.91-3.986 9.381-2.281 2.193-5.194 3.429-8.045 3.429z"></path><path fill="#2A1D19" d="M2148.044 1082.446c-2.476 0-5.643-1.542-8.123-3.961-2.66-2.596-4.126-5.738-4.126-8.846v-30.46a2.086 2.086 0 0 1 4.17 0v30.46c0 2.665 1.797 4.815 2.868 5.861 1.879 1.833 4.018 2.776 5.193 2.776l.052-.001c5.393-.15 8.217-4.458 8.217-8.636v-30.46a2.086 2.086 0 0 1 4.17 0v30.46c0 6.042-4.303 12.582-12.276 12.805-.048.002-.097.002-.145.002z"></path><path fill="#F72E70" d="M2302.46 1381.57s97.08 94.949 100.28 93.88c3.21-1.061 9.88-8.271 9.609-20.54 0 0 45.881-94.41 67.211-150.42 21.34-56.011-4.261-141.9-74.681-100.82l-91.62 163.37c.001 0-13.999 2.8-10.799 14.53z"></path><path fill="#2A1D19" d="M2431.429 1416.826a2.085 2.085 0 0 1-1.904-2.935c.389-.871 38.97-87.347 48.1-110.175 8.975-22.418 6.411-62.991 6.385-63.398a2.084 2.084 0 0 1 1.942-2.218c1.16-.062 2.143.794 2.218 1.943.113 1.701 2.655 41.921-6.674 65.223-9.159 22.902-47.773 109.453-48.162 110.325a2.088 2.088 0 0 1-1.905 1.235zM2313.258 1369.125a2.084 2.084 0 0 1-1.817-3.105l64.93-115.78a2.084 2.084 0 1 1 3.637 2.04l-64.93 115.78a2.083 2.083 0 0 1-1.82 1.065zM2402.9 1445.57l-74.32-63.33s55.12 30.75 74.32 63.33zM2373.751 1749.785c-27.486 0-56.258-4.164-85.872-12.447a2.084 2.084 0 1 1 1.123-4.015c87.513 24.477 150.721 7.552 188.333-10.958 40.774-20.063 61.139-46.27 61.339-46.531a2.085 2.085 0 0 1 3.313 2.532c-.839 1.099-21.031 27.129-62.606 47.641-24.386 12.031-51.063 19.588-79.289 22.461a260.311 260.311 0 0 1-26.341 1.317zM2638.939 2535.175H361.061a2.086 2.086 0 0 1 0-4.17H2638.94a2.086 2.086 0 0 1-.001 4.17z"></path></svg>